<?xml version="1.0" encoding="UTF-8" standalone="no"?>
<!-- Created with Inkscape (http://www.inkscape.org/) -->

<svg
   width="210mm"
   height="297mm"
   viewBox="0 0 210 297"
   version="1.1"
   id="svg5"
   inkscape:version="1.1.2 (0a00cf5339, 2022-02-04, custom)"
   sodipodi:docname="anubis_label.svg"
   xmlns:inkscape="http://www.inkscape.org/namespaces/inkscape"
   xmlns:sodipodi="http://sodipodi.sourceforge.net/DTD/sodipodi-0.dtd"
   xmlns="http://www.w3.org/2000/svg"
   xmlns:svg="http://www.w3.org/2000/svg">
  <sodipodi:namedview
     id="namedview7"
     pagecolor="#ffffff"
     bordercolor="#666666"
     borderopacity="1.0"
     inkscape:pageshadow="2"
     inkscape:pageopacity="0.0"
     inkscape:pagecheckerboard="0"
     inkscape:document-units="mm"
     showgrid="false"
     inkscape:zoom="1.1732099"
     inkscape:cx="-39.634851"
     inkscape:cy="476.89675"
     inkscape:window-width="1920"
     inkscape:window-height="1043"
     inkscape:window-x="1920"
     inkscape:window-y="305"
     inkscape:window-maximized="1"
     inkscape:current-layer="text17237" />
  <defs
     id="defs2">
    <rect
       x="-451.56712"
       y="442.8244"
       width="581.36001"
       height="18.983744"
       id="rect3092" />
    <rect
       x="-451.56712"
       y="442.8244"
       width="581.36001"
       height="18.983744"
       id="rect15484" />
    <rect
       x="-451.56712"
       y="442.8244"
       width="581.36001"
       height="18.983744"
       id="rect17239" />
  </defs>
  <g
     inkscape:label="Layer 1"
     inkscape:groupmode="layer"
     id="layer1">
    <text
       xml:space="preserve"
       transform="matrix(0.39950158,0,0,0.39950158,60.924549,-60.005551)"
       id="text3090"
       style="font-style:normal;font-weight:normal;font-size:10.6667px;line-height:1.25;font-family:sans-serif;white-space:pre;shape-inside:url(#rect3092);fill:#000000;fill-opacity:1;stroke:none"><tspan
         x="-451.56641"
         y="452.26425"
         id="tspan17495"><tspan
           style="font-family:pIRULEN;-inkscape-font-specification:pIRULEN"
           id="tspan17493">ANUBIS ALPHA-RC1 DESIGNED BY GONDOLINDRIM FOR THE ACHERONPROJECT</tspan></tspan></text>
    <g
       aria-label="ANUBIS ALPHA-RC1 DESIGNED BY GONDOLINDRIM FOR THE ACHERONPROJECT"
       transform="matrix(0.39950158,0,0,0.39950158,60.924549,-40.971657)"
       id="text17237"
       style="font-size:10.6667px;line-height:1.25;white-space:pre;shape-inside:url(#rect17239)">
      <path
         d="m -440.5797,452.26425 -4.96002,-7.50936 h -1.03467 l -4.99202,7.50936 h 1.57868 l 3.93601,-6.04802 3.87201,6.04802 z"
         style="font-family:pIRULEN;-inkscape-font-specification:pIRULEN"
         id="path17241" />
      <path
         d="m -429.945,452.26425 v -7.50936 h -1.23733 v 5.57869 l -7.47736,-5.57869 h -1.22667 v 7.50936 h 1.23734 v -5.84535 l 8.01069,5.84535 z"
         style="font-family:pIRULEN;-inkscape-font-specification:pIRULEN"
         id="path17243" />
      <path
         d="m -421.27297,452.26425 c 1.70667,0 2.05868,-0.736 2.05868,-1.81334 v -5.69602 h -1.41868 v 5.70669 c 0,0.448 -0.29866,0.69333 -0.93867,0.69333 h -4.66134 c -0.64001,0 -0.93867,-0.24533 -0.93867,-0.69333 v -5.70669 h -1.41867 v 5.69602 c 0,1.07734 0.65066,1.81334 2.35734,1.81334 z"
         style="font-family:pIRULEN;-inkscape-font-specification:pIRULEN"
         id="path17245" />
      <path
         d="m -411.72627,452.26425 c 1.85601,0 2.37868,-0.768 2.37868,-1.62134 v -1.09867 c 0,-0.72534 -0.416,-1.07734 -0.98134,-1.22667 0.53334,-0.10667 0.88534,-0.59734 0.88534,-1.248 v -0.69334 c 0,-1.00267 -0.64001,-1.62134 -2.30401,-1.62134 h -6.11202 v 7.50936 z m 0.96001,-1.88801 c 0,0.608 -0.39467,0.77867 -0.96001,0.77867 h -4.71468 v -2.22934 h 4.71468 c 0.56534,0 0.96001,0.17067 0.96001,0.64 z m -0.096,-3.14667 c 0,0.416 -0.22401,0.58666 -0.88534,0.58666 h -4.69335 v -1.952 h 4.69335 c 0.66133,0 0.88534,0.17067 0.88534,0.58667 z"
         style="font-family:pIRULEN;-inkscape-font-specification:pIRULEN"
         id="path17247" />
      <path
         d="m -406.54225,452.26425 v -7.50936 h -1.41867 v 7.50936 z"
         style="font-family:pIRULEN;-inkscape-font-specification:pIRULEN"
         id="path17249" />
      <path
         d="m -398.47821,452.26425 c 1.70667,0 2.35734,-0.736 2.35734,-1.81334 v -0.928 c 0,-1.07734 -0.65067,-1.81334 -2.35734,-1.81334 h -4.41602 c -0.64,0 -0.93867,-0.24534 -0.93867,-0.69334 v -0.45867 c 0,-0.448 0.29867,-0.69333 0.93867,-0.69333 h 6.35736 v -1.10934 h -6.35736 c -1.70667,0 -2.35734,0.736 -2.35734,1.81334 v 0.43734 c 0,1.07733 0.65067,1.81333 2.35734,1.81333 h 4.41602 c 0.64,0 0.93867,0.24534 0.93867,0.69334 v 0.94934 c 0,0.448 -0.29867,0.69333 -0.93867,0.69333 h -6.52802 v 1.10934 z"
         style="font-family:pIRULEN;-inkscape-font-specification:pIRULEN"
         id="path17251" />
      <path
         d="m -379.33148,452.26425 -4.96002,-7.50936 h -1.03467 l -4.99201,7.50936 h 1.57867 l 3.93601,-6.04802 3.87201,6.04802 z"
         style="font-family:pIRULEN;-inkscape-font-specification:pIRULEN"
         id="path17253" />
      <path
         d="m -371.11812,452.26425 v -1.10934 h -6.09068 v -6.40002 h -1.42934 v 7.50936 z"
         style="font-family:pIRULEN;-inkscape-font-specification:pIRULEN"
         id="path17255" />
      <path
         d="m -363.97142,449.49091 c 1.70667,0 2.35734,-0.73601 2.35734,-1.81334 v -1.10934 c 0,-1.07734 -0.65067,-1.81334 -2.35734,-1.81334 h -6.15469 v 7.50936 h 1.41867 v -2.77334 z m 0.93867,-1.80268 c 0,0.44801 -0.29867,0.69334 -0.93867,0.69334 h -4.73602 v -2.51734 h 4.73602 c 0.64,0 0.93867,0.24533 0.93867,0.69333 z"
         style="font-family:pIRULEN;-inkscape-font-specification:pIRULEN"
         id="path17257" />
      <path
         d="m -351.64071,452.26425 v -7.50936 h -1.41867 v 2.98668 h -6.14402 v -2.98668 h -1.41867 v 7.50936 h 1.41867 v -3.41335 h 6.14402 v 3.41335 z"
         style="font-family:pIRULEN;-inkscape-font-specification:pIRULEN"
         id="path17259" />
      <path
         d="m -339.96067,452.26425 -4.96002,-7.50936 h -1.03467 l -4.99201,7.50936 h 1.57867 l 3.93601,-6.04802 3.87201,6.04802 z"
         style="font-family:pIRULEN;-inkscape-font-specification:pIRULEN"
         id="path17261" />
      <path
         d="m -336.48332,448.84024 v -1.18401 h -3.98935 v 1.18401 z"
         style="font-family:pIRULEN;-inkscape-font-specification:pIRULEN"
         id="path17263" />
      <path
         d="m -326.90463,452.26425 -1.77067,-3.37068 c 1.33334,-0.128 1.85601,-0.82133 1.85601,-1.792 v -0.53334 c 0,-1.07734 -0.65067,-1.81334 -2.35734,-1.81334 h -6.37869 v 7.50936 h 1.41867 v -3.34935 h 3.95735 l 1.76,3.34935 z m -1.33334,-5.15202 c 0,0.448 -0.29866,0.69334 -0.93866,0.69334 h -4.96002 v -1.94134 h 4.96002 c 0.64,0 0.93866,0.24533 0.93866,0.69333 z"
         style="font-family:pIRULEN;-inkscape-font-specification:pIRULEN"
         id="path17265" />
      <path
         d="m -317.32592,452.26425 v -1.10934 h -6.04802 c -0.64,0 -0.93867,-0.24533 -0.93867,-0.69333 v -3.90402 c 0,-0.448 0.29867,-0.69333 0.93867,-0.69333 h 6.04802 v -1.10934 h -6.04802 c -1.70667,0 -2.35734,0.736 -2.35734,1.81334 v 3.88268 c 0,1.07734 0.65067,1.81334 2.35734,1.81334 z"
         style="font-family:pIRULEN;-inkscape-font-specification:pIRULEN"
         id="path17267" />
      <path
         d="m -313.33657,452.26425 v -7.50936 h -1.97334 l -1.46134,1.65334 h 1.49334 l 0.52266,-0.59734 v 6.45336 z"
         style="font-family:pIRULEN;-inkscape-font-specification:pIRULEN"
         id="path17269" />
      <path
         d="m -299.72587,452.26425 c 2.12268,0 2.77334,-0.736 2.77334,-2.14401 v -3.14667 c 0,-1.48268 -0.65066,-2.21868 -2.77334,-2.21868 h -6.88002 v 7.50936 z m 1.35467,-2.15467 c 0,0.8 -0.29866,1.04533 -1.35467,1.04533 h -5.46135 v -5.29068 h 5.46135 c 1.05601,0 1.35467,0.24533 1.35467,1.10934 z"
         style="font-family:pIRULEN;-inkscape-font-specification:pIRULEN"
         id="path17271" />
      <path
         d="m -287.89649,452.26425 v -1.10934 h -6.30402 v -2.30401 h 5.98402 v -1.10933 h -5.98402 v -1.87734 h 6.30402 v -1.10934 h -7.72269 v 7.50936 z"
         style="font-family:pIRULEN;-inkscape-font-specification:pIRULEN"
         id="path17273" />
      <path
         d="m -280.06713,452.26425 c 1.70667,0 2.35734,-0.736 2.35734,-1.81334 v -0.928 c 0,-1.07734 -0.65067,-1.81334 -2.35734,-1.81334 h -4.41602 c -0.64,0 -0.93867,-0.24534 -0.93867,-0.69334 v -0.45867 c 0,-0.448 0.29867,-0.69333 0.93867,-0.69333 h 6.35735 v -1.10934 h -6.35735 c -1.70667,0 -2.35734,0.736 -2.35734,1.81334 v 0.43734 c 0,1.07733 0.65067,1.81333 2.35734,1.81333 h 4.41602 c 0.64,0 0.93867,0.24534 0.93867,0.69334 v 0.94934 c 0,0.448 -0.29867,0.69333 -0.93867,0.69333 h -6.52803 v 1.10934 z"
         style="font-family:pIRULEN;-inkscape-font-specification:pIRULEN"
         id="path17275" />
      <path
         d="m -275.07512,452.26425 v -7.50936 h -1.41867 v 7.50936 z"
         style="font-family:pIRULEN;-inkscape-font-specification:pIRULEN"
         id="path17277" />
      <path
         d="m -267.69376,452.26425 c 1.78134,0 2.67734,-0.53334 2.67734,-1.60001 v -2.496 h -1.41867 v 2.496 c 0,0.33067 -0.416,0.49067 -1.25867,0.49067 h -3.31734 c -0.84267,0 -1.25867,-0.17067 -1.25867,-0.512 v -4.26668 c 0,-0.34133 0.416,-0.512 1.25867,-0.512 h 5.87735 v -1.10934 h -5.87735 c -1.78134,0 -2.67734,0.544 -2.67734,1.62134 v 4.26668 c 0,1.07734 0.896,1.62134 2.67734,1.62134 z"
         style="font-family:pIRULEN;-inkscape-font-specification:pIRULEN"
         id="path17279" />
      <path
         d="m -253.76305,452.26425 v -7.50936 h -1.23734 v 5.57869 l -7.47735,-5.57869 h -1.22668 v 7.50936 h 1.23734 v -5.84535 l 8.01069,5.84535 z"
         style="font-family:pIRULEN;-inkscape-font-specification:pIRULEN"
         id="path17281" />
      <path
         d="m -244.65368,452.26425 v -1.10934 h -6.30402 v -2.30401 h 5.98402 v -1.10933 h -5.98402 v -1.87734 h 6.30402 v -1.10934 h -7.72269 v 7.50936 z"
         style="font-family:pIRULEN;-inkscape-font-specification:pIRULEN"
         id="path17283" />
      <path
         d="m -236.56832,452.26425 c 2.12267,0 2.77334,-0.736 2.77334,-2.14401 v -3.14667 c 0,-1.48268 -0.65067,-2.21868 -2.77334,-2.21868 h -6.88002 v 7.50936 z m 1.35467,-2.15467 c 0,0.8 -0.29867,1.04533 -1.35467,1.04533 h -5.46135 v -5.29068 h 5.46135 c 1.056,0 1.35467,0.24533 1.35467,1.10934 z"
         style="font-family:pIRULEN;-inkscape-font-specification:pIRULEN"
         id="path17285" />
      <path
         d="m -220.99494,452.26425 c 1.85601,0 2.37868,-0.768 2.37868,-1.62134 v -1.09867 c 0,-0.72534 -0.416,-1.07734 -0.98134,-1.22667 0.53334,-0.10667 0.88534,-0.59734 0.88534,-1.248 v -0.69334 c 0,-1.00267 -0.64,-1.62134 -2.30401,-1.62134 h -6.11202 v 7.50936 z m 0.96001,-1.88801 c 0,0.608 -0.39467,0.77867 -0.96001,0.77867 h -4.71468 v -2.22934 h 4.71468 c 0.56534,0 0.96001,0.17067 0.96001,0.64 z m -0.096,-3.14667 c 0,0.416 -0.224,0.58666 -0.88534,0.58666 h -4.69335 v -1.952 h 4.69335 c 0.66134,0 0.88534,0.17067 0.88534,0.58667 z"
         style="font-family:pIRULEN;-inkscape-font-specification:pIRULEN"
         id="path17287" />
      <path
         d="m -212.21623,452.26425 v -3.05068 l 4.78935,-4.45868 h -1.79201 l -3.71201,3.43468 -3.71201,-3.43468 h -1.81334 l 4.82135,4.45868 v 3.05068 z"
         style="font-family:pIRULEN;-inkscape-font-specification:pIRULEN"
         id="path17289" />
      <path
         d="m -195.45885,452.26425 c 1.78134,0 2.67734,-0.53334 2.67734,-1.60001 v -2.496 h -1.41867 v 2.496 c 0,0.33067 -0.416,0.49067 -1.25867,0.49067 h -3.31734 c -0.84267,0 -1.25867,-0.17067 -1.25867,-0.512 v -4.26668 c 0,-0.34133 0.416,-0.512 1.25867,-0.512 h 5.87735 v -1.10934 h -5.87735 c -1.78134,0 -2.67734,0.544 -2.67734,1.62134 v 4.26668 c 0,1.07734 0.896,1.62134 2.67734,1.62134 z"
         style="font-family:pIRULEN;-inkscape-font-specification:pIRULEN"
         id="path17291" />
      <path
         d="m -184.20548,452.26425 c 1.70667,0 2.35734,-0.736 2.35734,-1.81334 v -3.88268 c 0,-1.07734 -0.65067,-1.81334 -2.35734,-1.81334 h -4.96002 c -1.70667,0 -2.35734,0.736 -2.35734,1.81334 v 3.88268 c 0,1.07734 0.65067,1.81334 2.35734,1.81334 z m 0.93867,-1.80267 c 0,0.448 -0.29867,0.69333 -0.93867,0.69333 h -4.96002 c -0.64,0 -0.93867,-0.24533 -0.93867,-0.69333 v -3.90402 c 0,-0.448 0.29867,-0.69333 0.93867,-0.69333 h 4.96002 c 0.64,0 0.93867,0.24533 0.93867,0.69333 z"
         style="font-family:pIRULEN;-inkscape-font-specification:pIRULEN"
         id="path17293" />
      <path
         d="m -170.57343,452.26425 v -7.50936 h -1.23734 v 5.57869 l -7.47735,-5.57869 h -1.22667 v 7.50936 h 1.23733 v -5.84535 l 8.01069,5.84535 z"
         style="font-family:pIRULEN;-inkscape-font-specification:pIRULEN"
         id="path17295" />
      <path
         d="m -162.30674,452.26425 c 2.12267,0 2.77334,-0.736 2.77334,-2.14401 v -3.14667 c 0,-1.48268 -0.65067,-2.21868 -2.77334,-2.21868 h -6.88002 v 7.50936 z m 1.35467,-2.15467 c 0,0.8 -0.29867,1.04533 -1.35467,1.04533 h -5.46135 v -5.29068 h 5.46135 c 1.056,0 1.35467,0.24533 1.35467,1.10934 z"
         style="font-family:pIRULEN;-inkscape-font-specification:pIRULEN"
         id="path17297" />
      <path
         d="m -150.93601,452.26425 c 1.70667,0 2.35734,-0.736 2.35734,-1.81334 v -3.88268 c 0,-1.07734 -0.65067,-1.81334 -2.35734,-1.81334 h -4.96002 c -1.70667,0 -2.35734,0.736 -2.35734,1.81334 v 3.88268 c 0,1.07734 0.65067,1.81334 2.35734,1.81334 z m 0.93867,-1.80267 c 0,0.448 -0.29867,0.69333 -0.93867,0.69333 h -4.96002 c -0.64,0 -0.93867,-0.24533 -0.93867,-0.69333 v -3.90402 c 0,-0.448 0.29867,-0.69333 0.93867,-0.69333 h 4.96002 c 0.64,0 0.93867,0.24533 0.93867,0.69333 z"
         style="font-family:pIRULEN;-inkscape-font-specification:pIRULEN"
         id="path17299" />
      <path
         d="m -139.7253,452.26425 v -1.10934 h -6.09069 v -6.40002 h -1.42933 v 7.50936 z"
         style="font-family:pIRULEN;-inkscape-font-specification:pIRULEN"
         id="path17301" />
      <path
         d="m -137.2613,452.26425 v -7.50936 h -1.41867 v 7.50936 z"
         style="font-family:pIRULEN;-inkscape-font-specification:pIRULEN"
         id="path17303" />
      <path
         d="m -125.87992,452.26425 v -7.50936 h -1.23733 v 5.57869 l -7.47736,-5.57869 h -1.22667 v 7.50936 h 1.23733 v -5.84535 l 8.0107,5.84535 z"
         style="font-family:pIRULEN;-inkscape-font-specification:pIRULEN"
         id="path17305" />
      <path
         d="m -117.61323,452.26425 c 2.12268,0 2.77334,-0.736 2.77334,-2.14401 v -3.14667 c 0,-1.48268 -0.65066,-2.21868 -2.77334,-2.21868 h -6.88002 v 7.50936 z m 1.35467,-2.15467 c 0,0.8 -0.29866,1.04533 -1.35467,1.04533 h -5.46135 v -5.29068 h 5.46135 c 1.05601,0 1.35467,0.24533 1.35467,1.10934 z"
         style="font-family:pIRULEN;-inkscape-font-specification:pIRULEN"
         id="path17307" />
      <path
         d="m -104.85586,452.26425 -1.77067,-3.37068 c 1.33333,-0.128 1.856,-0.82133 1.856,-1.792 v -0.53334 c 0,-1.07734 -0.65067,-1.81334 -2.35734,-1.81334 h -6.37868 v 7.50936 h 1.41867 v -3.34935 h 3.95734 l 1.76001,3.34935 z m -1.33334,-5.15202 c 0,0.448 -0.29867,0.69334 -0.93867,0.69334 h -4.96001 v -1.94134 h 4.96001 c 0.64,0 0.93867,0.24533 0.93867,0.69333 z"
         style="font-family:pIRULEN;-inkscape-font-specification:pIRULEN"
         id="path17309" />
      <path
         d="m -102.15717,452.26425 v -7.50936 h -1.41867 v 7.50936 z"
         style="font-family:pIRULEN;-inkscape-font-specification:pIRULEN"
         id="path17311" />
      <path
         d="m -89.282454,452.26425 v -7.50936 h -1.216003 l -4.437348,6.13335 -4.458681,-6.13335 h -1.322674 v 7.50936 h 1.312008 v -5.24802 l 3.829345,5.24802 h 1.16267 l 3.818679,-5.25868 v 5.25868 z"
         style="font-family:pIRULEN;-inkscape-font-specification:pIRULEN"
         id="path17313" />
      <path
         d="m -75.266409,449.17091 v -1.10934 h -5.877352 v -2.19734 h 6.30402 v -1.10934 h -7.722691 v 7.50936 h 1.418671 v -3.09334 z"
         style="font-family:pIRULEN;-inkscape-font-specification:pIRULEN"
         id="path17315" />
      <path
         d="m -66.807717,452.26425 c 1.706672,0 2.357341,-0.736 2.357341,-1.81334 v -3.88268 c 0,-1.07734 -0.650669,-1.81334 -2.357341,-1.81334 h -4.960016 c -1.706672,0 -2.357341,0.736 -2.357341,1.81334 v 3.88268 c 0,1.07734 0.650669,1.81334 2.357341,1.81334 z m 0.938669,-1.80267 c 0,0.448 -0.298667,0.69333 -0.938669,0.69333 h -4.960016 c -0.640002,0 -0.93867,-0.24533 -0.93867,-0.69333 v -3.90402 c 0,-0.448 0.298668,-0.69333 0.93867,-0.69333 h 4.960016 c 0.640002,0 0.938669,0.24533 0.938669,0.69333 z"
         style="font-family:pIRULEN;-inkscape-font-specification:pIRULEN"
         id="path17317" />
      <path
         d="m -54.466334,452.26425 -1.770673,-3.37068 c 1.333338,-0.128 1.856006,-0.82133 1.856006,-1.792 v -0.53334 c 0,-1.07734 -0.650668,-1.81334 -2.35734,-1.81334 h -6.378687 v 7.50936 h 1.418671 v -3.34935 h 3.957346 l 1.760005,3.34935 z m -1.333338,-5.15202 c 0,0.448 -0.298667,0.69334 -0.938669,0.69334 h -4.960016 v -1.94134 h 4.960016 c 0.640002,0 0.938669,0.24533 0.938669,0.69333 z"
         style="font-family:pIRULEN;-inkscape-font-specification:pIRULEN"
         id="path17319" />
      <path
         d="m -42.999653,452.26425 v -6.40002 h 3.829346 v -1.10934 h -9.184029 v 1.10934 h 3.936012 v 6.40002 z"
         style="font-family:pIRULEN;-inkscape-font-specification:pIRULEN"
         id="path17321" />
      <path
         d="m -29.239609,452.26425 v -7.50936 h -1.418672 v 2.98668 H -36.8023 v -2.98668 h -1.418671 v 7.50936 h 1.418671 v -3.41335 h 6.144019 v 3.41335 z"
         style="font-family:pIRULEN;-inkscape-font-specification:pIRULEN"
         id="path17323" />
      <path
         d="m -20.130238,452.26425 v -1.10934 h -6.30402 v -2.30401 h 5.984019 v -1.10933 h -5.984019 v -1.87734 h 6.30402 v -1.10934 h -7.722691 v 7.50936 z"
         style="font-family:pIRULEN;-inkscape-font-specification:pIRULEN"
         id="path17325" />
      <path
         d="m -3.2981802,452.26425 -4.9600157,-7.50936 h -1.0346699 l -4.9920162,7.50936 h 1.578672 l 3.9360125,-6.04802 3.8720122,6.04802 z"
         style="font-family:pIRULEN;-inkscape-font-specification:pIRULEN"
         id="path17327" />
      <path
         d="m 5.288526,452.26425 v -1.10934 h -6.04801914 c -0.64000206,0 -0.93866966,-0.24533 -0.93866966,-0.69333 v -3.90402 c 0,-0.448 0.2986676,-0.69333 0.93866966,-0.69333 H 5.288526 v -1.10934 h -6.04801914 c -1.70667206,0 -2.35734076,0.736 -2.35734076,1.81334 v 3.88268 c 0,1.07734 0.6506687,1.81334 2.35734076,1.81334 z"
         style="font-family:pIRULEN;-inkscape-font-specification:pIRULEN"
         id="path17329" />
      <path
         d="m 15.464553,452.26425 v -7.50936 h -1.418671 v 2.98668 H 7.9018626 v -2.98668 H 6.4831915 v 7.50936 h 1.4186711 v -3.41335 h 6.1440194 v 3.41335 z"
         style="font-family:pIRULEN;-inkscape-font-specification:pIRULEN"
         id="path17331" />
      <path
         d="m 24.573925,452.26425 v -1.10934 h -6.30402 v -2.30401 h 5.984019 v -1.10933 h -5.984019 v -1.87734 h 6.30402 v -1.10934 h -7.722692 v 7.50936 z"
         style="font-family:pIRULEN;-inkscape-font-specification:pIRULEN"
         id="path17333" />
      <path
         d="m 34.429937,452.26425 -1.770673,-3.37068 c 1.333338,-0.128 1.856006,-0.82133 1.856006,-1.792 v -0.53334 c 0,-1.07734 -0.650669,-1.81334 -2.357341,-1.81334 h -6.378686 v 7.50936 h 1.418671 v -3.34935 h 3.957345 l 1.760006,3.34935 z m -1.333338,-5.15202 c 0,0.448 -0.298668,0.69334 -0.93867,0.69334 h -4.960015 v -1.94134 h 4.960015 c 0.640002,0 0.93867,0.24533 0.93867,0.69333 z"
         style="font-family:pIRULEN;-inkscape-font-specification:pIRULEN"
         id="path17335" />
      <path
         d="m 42.920646,452.26425 c 1.706672,0 2.357341,-0.736 2.357341,-1.81334 v -3.88268 c 0,-1.07734 -0.650669,-1.81334 -2.357341,-1.81334 H 37.96063 c -1.706672,0 -2.357341,0.736 -2.357341,1.81334 v 3.88268 c 0,1.07734 0.650669,1.81334 2.357341,1.81334 z m 0.938669,-1.80267 c 0,0.448 -0.298667,0.69333 -0.938669,0.69333 H 37.96063 c -0.640002,0 -0.938669,-0.24533 -0.938669,-0.69333 v -3.90402 c 0,-0.448 0.298667,-0.69333 0.938669,-0.69333 h 4.960016 c 0.640002,0 0.938669,0.24533 0.938669,0.69333 z"
         style="font-family:pIRULEN;-inkscape-font-specification:pIRULEN"
         id="path17337" />
      <path
         d="m 56.5527,452.26425 v -7.50936 h -1.237338 v 5.57869 l -7.477357,-5.57869 h -1.22667 v 7.50936 h 1.237337 v -5.84535 l 8.010692,5.84535 z"
         style="font-family:pIRULEN;-inkscape-font-specification:pIRULEN"
         id="path17339" />
      <path
         d="m 64.094054,449.49091 c 1.706672,0 2.357341,-0.73601 2.357341,-1.81334 v -1.10934 c 0,-1.07734 -0.650669,-1.81334 -2.357341,-1.81334 h -6.154686 v 7.50936 h 1.418671 v -2.77334 z m 0.93867,-1.80268 c 0,0.44801 -0.298668,0.69334 -0.93867,0.69334 h -4.736015 v -2.51734 h 4.736015 c 0.640002,0 0.93867,0.24533 0.93867,0.69333 z"
         style="font-family:pIRULEN;-inkscape-font-specification:pIRULEN"
         id="path17341" />
      <path
         d="m 76.094091,452.26425 -1.770673,-3.37068 c 1.333338,-0.128 1.856006,-0.82133 1.856006,-1.792 v -0.53334 c 0,-1.07734 -0.650669,-1.81334 -2.357341,-1.81334 h -6.378686 v 7.50936 h 1.418671 v -3.34935 h 3.957346 l 1.760005,3.34935 z m -1.333338,-5.15202 c 0,0.448 -0.298668,0.69334 -0.93867,0.69334 h -4.960015 v -1.94134 h 4.960015 c 0.640002,0 0.93867,0.24533 0.93867,0.69333 z"
         style="font-family:pIRULEN;-inkscape-font-specification:pIRULEN"
         id="path17343" />
      <path
         d="m 84.5848,452.26425 c 1.706672,0 2.357341,-0.736 2.357341,-1.81334 v -3.88268 c 0,-1.07734 -0.650669,-1.81334 -2.357341,-1.81334 h -4.960016 c -1.706672,0 -2.357341,0.736 -2.357341,1.81334 v 3.88268 c 0,1.07734 0.650669,1.81334 2.357341,1.81334 z m 0.93867,-1.80267 c 0,0.448 -0.298668,0.69333 -0.93867,0.69333 h -4.960016 c -0.640002,0 -0.938669,-0.24533 -0.938669,-0.69333 v -3.90402 c 0,-0.448 0.298667,-0.69333 0.938669,-0.69333 H 84.5848 c 0.640002,0 0.93867,0.24533 0.93867,0.69333 z"
         style="font-family:pIRULEN;-inkscape-font-specification:pIRULEN"
         id="path17345" />
      <path
         d="m 89.587474,452.26425 c 1.664005,0 2.346674,-0.672 2.346674,-1.60001 v -5.90935 h -1.418671 v 5.90935 c 0,0.33067 -0.277335,0.49067 -0.928003,0.49067 h -2.058673 v 1.10934 z"
         style="font-family:pIRULEN;-inkscape-font-specification:pIRULEN"
         id="path17347" />
      <path
         d="m 101.01155,452.26425 v -1.10934 h -6.304023 v -2.30401 h 5.984023 v -1.10933 h -5.984023 v -1.87734 h 6.304023 v -1.10934 h -7.722694 v 7.50936 z"
         style="font-family:pIRULEN;-inkscape-font-specification:pIRULEN"
         id="path17349" />
      <path
         d="m 110.56886,452.26425 v -1.10934 h -6.04802 c -0.64,0 -0.93867,-0.24533 -0.93867,-0.69333 v -3.90402 c 0,-0.448 0.29867,-0.69333 0.93867,-0.69333 h 6.04802 v -1.10934 h -6.04802 c -1.70667,0 -2.35734,0.736 -2.35734,1.81334 v 3.88268 c 0,1.07734 0.65067,1.81334 2.35734,1.81334 z"
         style="font-family:pIRULEN;-inkscape-font-specification:pIRULEN"
         id="path17351" />
      <path
         d="m 116.67021,452.26425 v -6.40002 h 3.82934 v -1.10934 h -9.18403 v 1.10934 h 3.93602 v 6.40002 z"
         style="font-family:pIRULEN;-inkscape-font-specification:pIRULEN"
         id="path17353" />
    </g>
  </g>
</svg>
